<?xml version="1.0" encoding="utf-8"?>
<!-- Generator: Adobe Illustrator 27.5.0, SVG Export Plug-In . SVG Version: 6.00 Build 0)  -->
<svg version="1.1" xmlns="http://www.w3.org/2000/svg" xmlns:xlink="http://www.w3.org/1999/xlink" x="0px" y="0px"
	 viewBox="0 0 500 500" style="enable-background:new 0 0 500 500;" xml:space="preserve">
<g id="BACKGROUND">
</g>
<g id="OBJECTS">
	<g>
		<path style="fill:#FFE8A8;" d="M193.319,68.237l-6.312,3.644c-0.223-17.227-1.813-30.732-9.743-39.767
			c-13.296-15.149-38.872-17.529-65.197-2.33c-42.025,24.263-74.326,81.82-74.925,128.622l-6.326,3.653
			c-1.709,0.987-3.095,3.634-3.095,5.913v18.571c-0.639,5.455,6.469,7.17,8.179,6.183l157.42-97.665
			c1.709-0.987,3.095-3.634,3.095-5.913l5.694-17.302C202.107,69.566,198.742,64.956,193.319,68.237z M111.893,57.84
			c25.732-14.857,46.128-7.184,46.922,16.174c0.053,1.575-1.336,3.735-3.021,4.707l-87.789,50.685
			c-1.685,0.973-3.075,0.419-3.022-1.218C65.77,103.918,86.161,72.696,111.893,57.84z"/>
		<polygon style="fill:#FFE08A;" points="43.51,161.889 37.142,158.406 30.815,162.058 37.204,165.53 		"/>
		<g>
			<path style="fill:#FFD563;" d="M193.41,76.727c0.033-47.086-32.511-67.977-74.954-43.472S43.468,116.23,43.502,163.277
				c0.002,3.114,2.292,4.419,4.978,2.868l139.953-80.802C191.118,83.793,193.408,79.844,193.41,76.727z M162.182,82.193
				l-87.789,50.685c-1.685,0.973-3.075,0.418-3.022-1.218c0.787-24.271,21.178-55.492,46.911-70.348
				c25.732-14.857,46.128-7.184,46.922,16.174C165.257,79.061,163.867,81.221,162.182,82.193z"/>
			<path style="fill:#F0C85D;" d="M199.708,98.533L37.204,192.354c-1.709,0.987-3.095-0.061-3.095-2.34v-18.571
				c0-2.279,1.386-4.926,3.095-5.913l162.504-93.822c1.709-0.987,3.095,0.061,3.095,2.34v18.571
				C202.803,94.898,201.417,97.546,199.708,98.533z"/>
			<g>
				
					<line style="fill:none;stroke:#A88C41;stroke-linecap:round;stroke-linejoin:round;stroke-miterlimit:10;" x1="41.788" y1="187.707" x2="41.788" y2="177.608"/>
				
					<line style="fill:none;stroke:#A88C41;stroke-linecap:round;stroke-linejoin:round;stroke-miterlimit:10;" x1="48.177" y1="184.019" x2="48.177" y2="170.607"/>
				
					<line style="fill:none;stroke:#A88C41;stroke-linecap:round;stroke-linejoin:round;stroke-miterlimit:10;" x1="54.566" y1="180.33" x2="54.566" y2="170.231"/>
				
					<line style="fill:none;stroke:#A88C41;stroke-linecap:round;stroke-linejoin:round;stroke-miterlimit:10;" x1="60.955" y1="176.641" x2="60.955" y2="163.229"/>
				
					<line style="fill:none;stroke:#A88C41;stroke-linecap:round;stroke-linejoin:round;stroke-miterlimit:10;" x1="67.344" y1="172.953" x2="67.344" y2="162.853"/>
				
					<line style="fill:none;stroke:#A88C41;stroke-linecap:round;stroke-linejoin:round;stroke-miterlimit:10;" x1="73.733" y1="169.264" x2="73.733" y2="155.852"/>
				
					<line style="fill:none;stroke:#A88C41;stroke-linecap:round;stroke-linejoin:round;stroke-miterlimit:10;" x1="80.122" y1="165.575" x2="80.122" y2="155.476"/>
				
					<line style="fill:none;stroke:#A88C41;stroke-linecap:round;stroke-linejoin:round;stroke-miterlimit:10;" x1="86.511" y1="161.887" x2="86.511" y2="148.475"/>
				
					<line style="fill:none;stroke:#A88C41;stroke-linecap:round;stroke-linejoin:round;stroke-miterlimit:10;" x1="92.9" y1="158.198" x2="92.9" y2="148.099"/>
				
					<line style="fill:none;stroke:#A88C41;stroke-linecap:round;stroke-linejoin:round;stroke-miterlimit:10;" x1="99.289" y1="154.509" x2="99.289" y2="141.097"/>
				
					<line style="fill:none;stroke:#A88C41;stroke-linecap:round;stroke-linejoin:round;stroke-miterlimit:10;" x1="105.678" y1="150.821" x2="105.678" y2="140.721"/>
				
					<line style="fill:none;stroke:#A88C41;stroke-linecap:round;stroke-linejoin:round;stroke-miterlimit:10;" x1="112.067" y1="147.132" x2="112.067" y2="133.72"/>
				
					<line style="fill:none;stroke:#A88C41;stroke-linecap:round;stroke-linejoin:round;stroke-miterlimit:10;" x1="118.456" y1="143.443" x2="118.456" y2="133.344"/>
				
					<line style="fill:none;stroke:#A88C41;stroke-linecap:round;stroke-linejoin:round;stroke-miterlimit:10;" x1="124.845" y1="139.755" x2="124.845" y2="126.342"/>
				
					<line style="fill:none;stroke:#A88C41;stroke-linecap:round;stroke-linejoin:round;stroke-miterlimit:10;" x1="131.234" y1="136.066" x2="131.234" y2="125.967"/>
				
					<line style="fill:none;stroke:#A88C41;stroke-linecap:round;stroke-linejoin:round;stroke-miterlimit:10;" x1="137.623" y1="132.377" x2="137.623" y2="118.965"/>
				
					<line style="fill:none;stroke:#A88C41;stroke-linecap:round;stroke-linejoin:round;stroke-miterlimit:10;" x1="144.012" y1="128.689" x2="144.012" y2="118.589"/>
				
					<line style="fill:none;stroke:#A88C41;stroke-linecap:round;stroke-linejoin:round;stroke-miterlimit:10;" x1="150.401" y1="125" x2="150.401" y2="111.588"/>
				
					<line style="fill:none;stroke:#A88C41;stroke-linecap:round;stroke-linejoin:round;stroke-miterlimit:10;" x1="156.79" y1="121.311" x2="156.79" y2="111.212"/>
				
					<line style="fill:none;stroke:#A88C41;stroke-linecap:round;stroke-linejoin:round;stroke-miterlimit:10;" x1="163.179" y1="117.623" x2="163.179" y2="104.211"/>
				
					<line style="fill:none;stroke:#A88C41;stroke-linecap:round;stroke-linejoin:round;stroke-miterlimit:10;" x1="169.567" y1="113.934" x2="169.567" y2="103.835"/>
				
					<line style="fill:none;stroke:#A88C41;stroke-linecap:round;stroke-linejoin:round;stroke-miterlimit:10;" x1="175.956" y1="110.245" x2="175.956" y2="96.833"/>
				
					<line style="fill:none;stroke:#A88C41;stroke-linecap:round;stroke-linejoin:round;stroke-miterlimit:10;" x1="182.345" y1="106.557" x2="182.345" y2="96.457"/>
				
					<line style="fill:none;stroke:#A88C41;stroke-linecap:round;stroke-linejoin:round;stroke-miterlimit:10;" x1="195.123" y1="99.179" x2="195.123" y2="89.08"/>
				
					<line style="fill:none;stroke:#A88C41;stroke-linecap:round;stroke-linejoin:round;stroke-miterlimit:10;" x1="188.734" y1="102.868" x2="188.734" y2="89.456"/>
			</g>
		</g>
	</g>
	<g>
		<path style="fill:#7B8BAB;" d="M474.093,477.344l0.236-6.047l-31.625-194.893c-0.28-1.79-3.948-2.797-6.217-1.706l-155.491,68.804
			c-1.982,1.475-1.664,6.705,0.977,8.411l185.673,126.759C470.053,480.314,473.484,479.843,474.093,477.344z M322.72,355.594
			c-0.783-0.535-0.725-1.302,0.129-1.713l87.099-41.878c1.281-0.616,3.352-0.048,3.509,0.963l17.72,113.438
			c0.183,1.169-2.281,1.677-3.639,0.75L322.72,355.594z"/>
		<g>
			<path style="fill:#B6C2D9;" d="M474.093,471.346l-31.389-200.94c-0.28-1.79-3.948-2.797-6.217-1.706l-154.284,74.181
				c-1.514,0.728-1.617,2.086-0.229,3.034l185.673,126.759C470.053,474.316,474.416,473.417,474.093,471.346z M324.865,349.597
				c-0.783-0.535-0.725-1.302,0.129-1.713l87.099-41.878c1.281-0.616,3.352-0.048,3.509,0.963l17.72,113.438
				c0.182,1.169-2.281,1.677-3.639,0.75L324.865,349.597z"/>
			<g>
				<path style="fill:#95A4C2;" d="M433.323,420.407l-17.72-113.438c-0.108-0.691-1.112-1.165-2.146-1.204v7.202l16.953,108.525
					C431.767,421.9,433.477,421.388,433.323,420.407z"/>
			</g>
			<g>
				<line style="fill:none;stroke:#7B8BAB;stroke-miterlimit:10;" x1="288.533" y1="351.393" x2="298.189" y2="346.751"/>
				<line style="fill:none;stroke:#7B8BAB;stroke-miterlimit:10;" x1="295.468" y1="356.128" x2="308.291" y2="349.962"/>
				<line style="fill:none;stroke:#7B8BAB;stroke-miterlimit:10;" x1="302.403" y1="360.862" x2="312.059" y2="356.22"/>
				<line style="fill:none;stroke:#7B8BAB;stroke-miterlimit:10;" x1="309.338" y1="365.596" x2="322.161" y2="359.431"/>
				<line style="fill:none;stroke:#7B8BAB;stroke-miterlimit:10;" x1="316.273" y1="370.331" x2="325.929" y2="365.688"/>
				<line style="fill:none;stroke:#7B8BAB;stroke-miterlimit:10;" x1="323.208" y1="375.065" x2="336.031" y2="368.9"/>
				<line style="fill:none;stroke:#7B8BAB;stroke-miterlimit:10;" x1="330.143" y1="379.8" x2="339.798" y2="375.157"/>
				<line style="fill:none;stroke:#7B8BAB;stroke-miterlimit:10;" x1="337.078" y1="384.534" x2="349.901" y2="378.369"/>
				<line style="fill:none;stroke:#7B8BAB;stroke-miterlimit:10;" x1="344.012" y1="389.269" x2="353.668" y2="384.626"/>
				<line style="fill:none;stroke:#7B8BAB;stroke-miterlimit:10;" x1="350.947" y1="394.003" x2="363.77" y2="387.838"/>
				<line style="fill:none;stroke:#7B8BAB;stroke-miterlimit:10;" x1="357.882" y1="398.738" x2="367.538" y2="394.095"/>
				<line style="fill:none;stroke:#7B8BAB;stroke-miterlimit:10;" x1="364.817" y1="403.472" x2="377.64" y2="397.307"/>
				<line style="fill:none;stroke:#7B8BAB;stroke-miterlimit:10;" x1="371.752" y1="408.207" x2="381.408" y2="403.564"/>
				<line style="fill:none;stroke:#7B8BAB;stroke-miterlimit:10;" x1="378.687" y1="412.941" x2="391.51" y2="406.776"/>
				<line style="fill:none;stroke:#7B8BAB;stroke-miterlimit:10;" x1="385.622" y1="417.676" x2="395.278" y2="413.033"/>
				<line style="fill:none;stroke:#7B8BAB;stroke-miterlimit:10;" x1="392.557" y1="422.41" x2="405.38" y2="416.245"/>
				<line style="fill:none;stroke:#7B8BAB;stroke-miterlimit:10;" x1="399.492" y1="427.145" x2="409.147" y2="422.502"/>
				<line style="fill:none;stroke:#7B8BAB;stroke-miterlimit:10;" x1="406.427" y1="431.879" x2="419.25" y2="425.714"/>
				<line style="fill:none;stroke:#7B8BAB;stroke-miterlimit:10;" x1="413.361" y1="436.613" x2="423.017" y2="431.971"/>
				<line style="fill:none;stroke:#7B8BAB;stroke-miterlimit:10;" x1="420.296" y1="441.348" x2="433.119" y2="435.182"/>
				<line style="fill:none;stroke:#7B8BAB;stroke-miterlimit:10;" x1="427.231" y1="446.082" x2="436.887" y2="441.44"/>
				<line style="fill:none;stroke:#7B8BAB;stroke-miterlimit:10;" x1="434.166" y1="450.817" x2="446.989" y2="444.651"/>
				<line style="fill:none;stroke:#7B8BAB;stroke-miterlimit:10;" x1="441.101" y1="455.551" x2="450.757" y2="450.909"/>
				<line style="fill:none;stroke:#7B8BAB;stroke-miterlimit:10;" x1="454.971" y1="465.02" x2="464.627" y2="460.378"/>
				<line style="fill:none;stroke:#7B8BAB;stroke-miterlimit:10;" x1="448.036" y1="460.286" x2="460.859" y2="454.12"/>
			</g>
		</g>
	</g>
	<g>
		<path style="fill:#DE8591;" d="M456.264,426.152L294.27,460.689c-6.085,1.297-12.125-2.62-13.422-8.704l0,0
			c-1.297-6.085,2.62-12.125,8.704-13.422l161.994-34.537c0.292-0.062,0.594-0.069,0.888-0.019l23.895,4.055
			c2.108,0.358,2.695,3.109,0.916,4.296l-20.164,13.449C456.834,425.973,456.556,426.09,456.264,426.152z"/>
		<path style="fill:#B86F78;" d="M454.909,419.796l-161.994,34.537c-6.085,1.297-11.515,0.24-12.067-2.349l0,0
			c-0.552-2.589,3.975-5.769,10.059-7.066l161.994-34.537c0.292-0.062,0.587-0.1,0.868-0.112l22.823-0.973
			c2.014-0.086,2.263,1.085,0.39,1.828l-21.235,8.421C455.485,419.649,455.201,419.734,454.909,419.796z"/>
		<path style="fill:#FFD1D8;" d="M476.33,408.063l-23.895-4.055c-0.294-0.05-0.596-0.044-0.888,0.019l-0.421,0.09
			c-0.119,3.605,0.204,7.436,1.037,11.345c0.833,3.909,2.101,7.539,3.68,10.781l0.421-0.09c0.292-0.062,0.57-0.18,0.818-0.345
			l20.164-13.449C479.025,411.171,478.438,408.42,476.33,408.063z"/>
		<g>
			<path style="fill:#B6C2D9;" d="M305.347,446.762c-0.815-3.825-1.289-7.596-1.466-11.253l-14.328,3.055
				c-6.085,1.297-10.002,7.337-8.704,13.422l0,0c1.297,6.085,7.337,10.002,13.422,8.704l14.328-3.055
				C307.267,454.223,306.162,450.587,305.347,446.762z"/>
		</g>
		<path style="fill:#DE8591;" d="M289.705,450.096c-0.798-3.743-1.353-7.448-1.694-11.086c-5.186,1.907-8.347,7.421-7.163,12.974
			l0,0c1.184,5.553,6.318,9.299,11.832,8.925C291.508,457.449,290.503,453.84,289.705,450.096z"/>
		<path style="fill:#9C5E65;" d="M471.134,416.435l6.112-4.076c1.779-1.187,1.193-3.938-0.916-4.296l-7.243-1.229
			c0.176,1.597,0.433,3.218,0.782,4.852C470.217,413.32,470.644,414.904,471.134,416.435z"/>
	</g>
	<g>
		<path style="fill:#C7A74D;" d="M241.029,231.857l131.807,50.2c1.428,0.544,3.55,0.194,4.717-0.777l108.545-90.341
			c3.148-3.02,1.033-7.909-1.915-7.417l-242.868,40.579C236.688,225.351,238.757,230.992,241.029,231.857z M305.103,234.165
			l119.778-20.004c1.469-0.245,2.39,0.654,1.461,1.428l-54.093,45.021c-0.582,0.484-1.639,0.658-2.351,0.387l-65.685-25.017
			C303.081,235.549,303.639,234.409,305.103,234.165z"/>
		<g>
			<path style="fill:#FFD563;" d="M241.029,227.271l131.807,50.2c1.428,0.544,3.55,0.194,4.717-0.777l108.545-90.341
				c1.864-1.552,0.017-3.357-2.932-2.865L242.814,223.63C239.878,224.12,238.757,226.406,241.029,227.271z M305.103,229.579
				l119.778-20.004c1.469-0.245,2.39,0.654,1.461,1.427l-54.093,45.021c-0.582,0.484-1.639,0.658-2.351,0.387l-65.685-25.017
				C303.081,230.963,303.639,229.824,305.103,229.579z"/>
			<g>
				
					<line style="fill:none;stroke:#A88C41;stroke-linecap:round;stroke-linejoin:round;stroke-miterlimit:10;" x1="367.933" y1="274.223" x2="374.155" y2="269.158"/>
				
					<line style="fill:none;stroke:#A88C41;stroke-linecap:round;stroke-linejoin:round;stroke-miterlimit:10;" x1="363.116" y1="272.388" x2="371.378" y2="265.662"/>
				
					<line style="fill:none;stroke:#A88C41;stroke-linecap:round;stroke-linejoin:round;stroke-miterlimit:10;" x1="358.298" y1="270.553" x2="364.519" y2="265.488"/>
				
					<line style="fill:none;stroke:#A88C41;stroke-linecap:round;stroke-linejoin:round;stroke-miterlimit:10;" x1="353.48" y1="268.718" x2="361.742" y2="261.992"/>
				
					<line style="fill:none;stroke:#A88C41;stroke-linecap:round;stroke-linejoin:round;stroke-miterlimit:10;" x1="348.662" y1="266.883" x2="354.883" y2="261.818"/>
				
					<line style="fill:none;stroke:#A88C41;stroke-linecap:round;stroke-linejoin:round;stroke-miterlimit:10;" x1="343.844" y1="265.048" x2="352.106" y2="258.322"/>
				
					<line style="fill:none;stroke:#A88C41;stroke-linecap:round;stroke-linejoin:round;stroke-miterlimit:10;" x1="339.026" y1="263.214" x2="345.247" y2="258.148"/>
				
					<line style="fill:none;stroke:#A88C41;stroke-linecap:round;stroke-linejoin:round;stroke-miterlimit:10;" x1="334.208" y1="261.379" x2="342.47" y2="254.652"/>
				
					<line style="fill:none;stroke:#A88C41;stroke-linecap:round;stroke-linejoin:round;stroke-miterlimit:10;" x1="329.39" y1="259.544" x2="335.612" y2="254.479"/>
				
					<line style="fill:none;stroke:#A88C41;stroke-linecap:round;stroke-linejoin:round;stroke-miterlimit:10;" x1="324.573" y1="257.709" x2="332.835" y2="250.982"/>
				
					<line style="fill:none;stroke:#A88C41;stroke-linecap:round;stroke-linejoin:round;stroke-miterlimit:10;" x1="319.755" y1="255.874" x2="325.976" y2="250.809"/>
				
					<line style="fill:none;stroke:#A88C41;stroke-linecap:round;stroke-linejoin:round;stroke-miterlimit:10;" x1="314.937" y1="254.039" x2="323.199" y2="247.312"/>
				
					<line style="fill:none;stroke:#A88C41;stroke-linecap:round;stroke-linejoin:round;stroke-miterlimit:10;" x1="310.119" y1="252.204" x2="316.34" y2="247.139"/>
				
					<line style="fill:none;stroke:#A88C41;stroke-linecap:round;stroke-linejoin:round;stroke-miterlimit:10;" x1="305.301" y1="250.369" x2="313.563" y2="243.643"/>
				
					<line style="fill:none;stroke:#A88C41;stroke-linecap:round;stroke-linejoin:round;stroke-miterlimit:10;" x1="300.483" y1="248.534" x2="306.704" y2="243.469"/>
				
					<line style="fill:none;stroke:#A88C41;stroke-linecap:round;stroke-linejoin:round;stroke-miterlimit:10;" x1="295.665" y1="246.699" x2="303.927" y2="239.973"/>
				
					<line style="fill:none;stroke:#A88C41;stroke-linecap:round;stroke-linejoin:round;stroke-miterlimit:10;" x1="290.847" y1="244.864" x2="297.069" y2="239.799"/>
				
					<line style="fill:none;stroke:#A88C41;stroke-linecap:round;stroke-linejoin:round;stroke-miterlimit:10;" x1="286.029" y1="243.029" x2="294.292" y2="236.303"/>
				
					<line style="fill:none;stroke:#A88C41;stroke-linecap:round;stroke-linejoin:round;stroke-miterlimit:10;" x1="281.212" y1="241.194" x2="287.433" y2="236.129"/>
				
					<line style="fill:none;stroke:#A88C41;stroke-linecap:round;stroke-linejoin:round;stroke-miterlimit:10;" x1="276.394" y1="239.359" x2="284.656" y2="232.633"/>
				
					<line style="fill:none;stroke:#A88C41;stroke-linecap:round;stroke-linejoin:round;stroke-miterlimit:10;" x1="271.576" y1="237.524" x2="277.797" y2="232.46"/>
				
					<line style="fill:none;stroke:#A88C41;stroke-linecap:round;stroke-linejoin:round;stroke-miterlimit:10;" x1="266.758" y1="235.689" x2="275.02" y2="228.963"/>
				
					<line style="fill:none;stroke:#A88C41;stroke-linecap:round;stroke-linejoin:round;stroke-miterlimit:10;" x1="261.94" y1="233.855" x2="268.161" y2="228.79"/>
				
					<line style="fill:none;stroke:#A88C41;stroke-linecap:round;stroke-linejoin:round;stroke-miterlimit:10;" x1="252.304" y1="230.185" x2="258.526" y2="225.12"/>
				
					<line style="fill:none;stroke:#A88C41;stroke-linecap:round;stroke-linejoin:round;stroke-miterlimit:10;" x1="257.122" y1="232.02" x2="265.384" y2="225.293"/>
			</g>
		</g>
	</g>
	<g>
		<polygon style="fill:#7B8BAB;" points="333.418,194.457 208.498,122.334 208.498,112.696 333.418,184.819 		"/>
		<polygon style="fill:#95A4C2;" points="333.418,194.457 333.418,184.819 484.2,97.765 484.2,107.403 		"/>
		<polygon style="fill:#B6C2D9;" points="333.418,184.819 208.498,112.696 359.28,25.642 484.2,97.765 		"/>
		<polygon style="fill:#FFFFFF;" points="441.077,111.768 335.026,50.54 361.101,35.485 467.152,96.714 		"/>
		<polygon style="fill:#7B8BAB;" points="361.101,39.727 463.478,98.835 467.152,96.714 361.101,35.485 335.026,50.54 338.7,52.661 
					"/>
		<polygon style="fill:#95A4C2;" points="361.101,39.727 463.478,98.835 467.152,96.714 361.101,35.485 		"/>
		<g>
			<polygon style="fill:#7B8BAB;" points="327.23,72.272 307.398,60.822 307.398,66.491 327.23,77.941 			"/>
			<polygon style="fill:#7B8BAB;" points="354.42,93.639 354.42,87.97 334.587,76.52 334.587,82.189 			"/>
			<polygon style="fill:#7B8BAB;" points="384.106,110.779 384.106,105.11 364.274,93.66 364.274,99.328 			"/>
			<polygon style="fill:#7B8BAB;" points="393.616,110.6 393.616,116.269 413.448,127.719 413.448,122.05 			"/>
			<polygon style="fill:#7B8BAB;" points="300.314,87.812 280.482,76.362 280.482,82.031 300.314,93.481 			"/>
			<polygon style="fill:#7B8BAB;" points="327.504,103.51 307.672,92.06 307.672,97.729 327.504,109.179 			"/>
			<polygon style="fill:#7B8BAB;" points="357.191,120.649 337.358,109.199 337.358,114.868 357.191,126.318 			"/>
			<polygon style="fill:#7B8BAB;" points="366.701,131.809 386.533,143.259 386.533,137.59 366.701,126.14 			"/>
			<polygon style="fill:#7B8BAB;" points="273.399,103.352 253.566,91.901 253.566,97.57 273.399,109.021 			"/>
			<polygon style="fill:#7B8BAB;" points="280.756,113.268 300.588,124.718 300.588,119.049 280.756,107.599 			"/>
			<polygon style="fill:#7B8BAB;" points="330.275,136.189 310.443,124.739 310.443,130.408 330.275,141.858 			"/>
			<polygon style="fill:#7B8BAB;" points="226.651,107.441 226.651,113.11 246.483,124.56 246.483,118.891 			"/>
			<polygon style="fill:#7B8BAB;" points="253.84,123.139 253.84,128.808 273.673,140.258 273.673,134.589 			"/>
			<polygon style="fill:#7B8BAB;" points="283.527,140.279 283.527,145.948 303.359,157.398 303.359,151.729 			"/>
			<polygon style="fill:#965B62;" points="312.869,162.888 332.702,174.339 332.702,168.67 312.869,157.219 			"/>
		</g>
		<g>
			<polygon style="fill:#95A4C2;" points="347.063,66.491 347.063,60.822 327.23,72.272 327.23,77.941 			"/>
			<polygon style="fill:#95A4C2;" points="354.42,93.639 374.252,82.189 374.252,76.52 354.42,87.97 			"/>
			<polygon style="fill:#95A4C2;" points="384.106,110.779 403.939,99.328 403.939,93.66 384.106,105.11 			"/>
			<polygon style="fill:#95A4C2;" points="433.281,110.6 413.448,122.05 413.448,127.719 433.281,116.269 			"/>
			<polygon style="fill:#95A4C2;" points="320.147,82.031 320.147,76.362 300.314,87.812 300.314,93.481 			"/>
			<polygon style="fill:#95A4C2;" points="347.336,97.728 347.336,92.059 327.504,103.51 327.504,109.179 			"/>
			<polygon style="fill:#95A4C2;" points="377.023,114.868 377.023,109.199 357.191,120.649 357.191,126.318 			"/>
			<polygon style="fill:#95A4C2;" points="386.533,137.59 386.533,143.259 406.365,131.809 406.365,126.14 			"/>
			<polygon style="fill:#95A4C2;" points="293.231,97.57 293.231,91.901 273.399,103.352 273.399,109.021 			"/>
			<polygon style="fill:#95A4C2;" points="300.588,119.049 300.588,124.718 320.421,113.268 320.421,107.599 			"/>
			<polygon style="fill:#95A4C2;" points="350.108,130.408 350.108,124.739 330.275,136.189 330.275,141.858 			"/>
			<polygon style="fill:#95A4C2;" points="266.316,107.441 246.483,118.891 246.483,124.56 266.316,113.11 			"/>
			<polygon style="fill:#95A4C2;" points="293.505,123.139 273.673,134.589 273.673,140.258 293.505,128.808 			"/>
			<polygon style="fill:#95A4C2;" points="323.192,140.279 303.359,151.729 303.359,157.398 323.192,145.948 			"/>
			<polygon style="fill:#B86F78;" points="332.702,168.67 332.702,174.339 379.45,147.349 379.45,141.68 			"/>
		</g>
		<g>
			<polygon style="fill:#DCE4F2;" points="347.063,60.822 327.23,49.372 307.398,60.822 327.23,72.272 			"/>
			<polygon style="fill:#DCE4F2;" points="354.42,87.97 374.252,76.52 354.42,65.07 334.587,76.52 			"/>
			<polygon style="fill:#DCE4F2;" points="384.106,105.11 403.939,93.66 384.107,82.209 364.274,93.66 			"/>
			<polygon style="fill:#DCE4F2;" points="413.449,99.15 393.616,110.6 413.448,122.05 433.281,110.6 			"/>
			<polygon style="fill:#DCE4F2;" points="320.147,76.362 300.314,64.911 280.482,76.362 300.314,87.812 			"/>
			<polygon style="fill:#DCE4F2;" points="347.336,92.059 327.504,80.609 307.672,92.06 327.504,103.51 			"/>
			<polygon style="fill:#DCE4F2;" points="377.023,109.199 357.191,97.749 337.358,109.199 357.191,120.649 			"/>
			<polygon style="fill:#DCE4F2;" points="366.701,126.14 386.533,137.59 406.365,126.14 386.533,114.69 			"/>
			<polygon style="fill:#DCE4F2;" points="293.231,91.901 273.399,80.451 253.566,91.901 273.399,103.352 			"/>
			<polygon style="fill:#DCE4F2;" points="280.756,107.599 300.588,119.049 320.421,107.599 300.588,96.149 			"/>
			<polygon style="fill:#DCE4F2;" points="350.108,124.739 330.275,113.289 310.443,124.739 330.275,136.189 			"/>
			<polygon style="fill:#DCE4F2;" points="246.483,95.991 226.651,107.441 246.483,118.891 266.316,107.441 			"/>
			<polygon style="fill:#DCE4F2;" points="273.673,111.689 253.84,123.139 273.673,134.589 293.505,123.139 			"/>
			<polygon style="fill:#DCE4F2;" points="303.36,128.829 283.527,140.279 303.359,151.729 323.192,140.279 			"/>
			<polygon style="fill:#DE8591;" points="312.869,157.219 332.702,168.67 379.45,141.68 359.617,130.229 			"/>
		</g>
	</g>
	<g>
		
			<polyline style="fill:none;stroke:#B6C2D9;stroke-width:3;stroke-linecap:round;stroke-linejoin:round;stroke-miterlimit:10;" points="
			265.926,189.17 181.594,237.859 97.263,189.17 		"/>
		
			<polyline style="fill:none;stroke:#95A4C2;stroke-width:3;stroke-linecap:round;stroke-linejoin:round;stroke-miterlimit:10;" points="
			97.263,189.17 181.595,140.481 265.926,189.17 		"/>
		<g>
			
				<ellipse transform="matrix(0.9307 -0.3658 0.3658 0.9307 -38.7998 76.155)" style="fill:#DE8591;" cx="181.595" cy="140.481" rx="10.54" ry="10.54"/>
			<path style="fill:#B86F78;" d="M181.595,129.941c-0.235,0-0.465,0.02-0.696,0.035c4.727,0.357,8.453,4.296,8.453,9.114
				c0,5.053-4.096,9.149-9.149,9.149c-4.818,0-8.757-3.727-9.114-8.453c-0.015,0.231-0.035,0.461-0.035,0.696
				c0,5.821,4.719,10.54,10.54,10.54s10.54-4.719,10.54-10.54C192.135,134.66,187.416,129.941,181.595,129.941z"/>
			<path style="fill:#FFAAB6;" d="M179.478,133.237c1.414,0.786-0.679,2.239-2.05,4.703c-1.371,2.465-1.5,5.009-2.914,4.223
				c-1.414-0.786-1.449-3.422-0.078-5.887C175.806,133.811,178.064,132.45,179.478,133.237z"/>
		</g>
		
			<line style="fill:none;stroke:#B6C2D9;stroke-width:3;stroke-linecap:round;stroke-linejoin:round;stroke-miterlimit:10;" x1="181.595" y1="66.776" x2="181.595" y2="237.859"/>
		
			<line style="fill:none;stroke:#95A4C2;stroke-width:3;stroke-linecap:round;stroke-linejoin:round;stroke-miterlimit:10;" x1="97.263" y1="189.17" x2="181.595" y2="66.776"/>
		
			<line style="fill:none;stroke:#95A4C2;stroke-width:3;stroke-linecap:round;stroke-linejoin:round;stroke-miterlimit:10;" x1="181.595" y1="66.776" x2="265.926" y2="189.17"/>
		<g>
			
				<ellipse transform="matrix(0.1565 -0.9877 0.9877 0.1565 87.2174 235.6804)" style="fill:#DE8591;" cx="181.595" cy="66.776" rx="10.54" ry="10.54"/>
			<path style="fill:#B86F78;" d="M181.595,56.236c-0.235,0-0.465,0.02-0.696,0.035c4.727,0.357,8.453,4.296,8.453,9.114
				c0,5.053-4.096,9.149-9.149,9.149c-4.818,0-8.757-3.727-9.114-8.453c-0.015,0.231-0.035,0.461-0.035,0.696
				c0,5.821,4.719,10.54,10.54,10.54s10.54-4.719,10.54-10.54C192.135,60.955,187.416,56.236,181.595,56.236z"/>
			<path style="fill:#FFAAB6;" d="M179.478,59.532c1.414,0.787-0.679,2.239-2.05,4.703c-1.371,2.465-1.5,5.009-2.914,4.223
				c-1.414-0.787-1.449-3.422-0.078-5.887C175.806,60.106,178.064,58.745,179.478,59.532z"/>
		</g>
		<g>
			
				<ellipse transform="matrix(0.7071 -0.7071 0.7071 0.7071 -105.2759 124.1818)" style="fill:#DE8591;" cx="97.263" cy="189.17" rx="10.54" ry="10.54"/>
			<path style="fill:#B86F78;" d="M97.263,178.63c-0.235,0-0.465,0.02-0.696,0.035c4.727,0.357,8.453,4.296,8.453,9.114
				c0,5.053-4.096,9.149-9.149,9.149c-4.818,0-8.757-3.727-9.114-8.453c-0.015,0.231-0.035,0.461-0.035,0.696
				c0,5.821,4.719,10.54,10.54,10.54s10.54-4.719,10.54-10.54C107.803,183.349,103.084,178.63,97.263,178.63z"/>
			<path style="fill:#FFAAB6;" d="M95.146,181.926c1.414,0.787-0.679,2.238-2.05,4.703c-1.371,2.465-1.5,5.009-2.914,4.223
				c-1.414-0.787-1.449-3.423-0.078-5.887S93.732,181.139,95.146,181.926z"/>
		</g>
		<g>
			
				<ellipse transform="matrix(0.2308 -0.973 0.973 0.2308 20.489 404.2578)" style="fill:#DE8591;" cx="265.926" cy="189.17" rx="10.54" ry="10.54"/>
			<path style="fill:#B86F78;" d="M265.926,178.63c-0.235,0-0.465,0.02-0.696,0.035c4.727,0.357,8.453,4.296,8.453,9.114
				c0,5.053-4.096,9.149-9.149,9.149c-4.818,0-8.757-3.727-9.114-8.453c-0.015,0.231-0.035,0.461-0.035,0.696
				c0,5.821,4.719,10.54,10.54,10.54c5.821,0,10.54-4.719,10.54-10.54C276.467,183.349,271.748,178.63,265.926,178.63z"/>
			<path style="fill:#FFAAB6;" d="M263.81,181.926c1.414,0.787-0.679,2.238-2.05,4.703c-1.371,2.465-1.5,5.009-2.914,4.223
				c-1.414-0.787-1.449-3.423-0.078-5.887S262.395,181.139,263.81,181.926z"/>
		</g>
		<g>
			<circle style="fill:#DE8591;" cx="181.595" cy="237.859" r="10.54"/>
			<path style="fill:#B86F78;" d="M181.595,227.319c-0.235,0-0.465,0.02-0.696,0.035c4.727,0.357,8.453,4.296,8.453,9.114
				c0,5.053-4.096,9.149-9.149,9.149c-4.818,0-8.757-3.727-9.114-8.453c-0.015,0.231-0.035,0.461-0.035,0.696
				c0,5.821,4.719,10.54,10.54,10.54s10.54-4.719,10.54-10.54C192.135,232.038,187.416,227.319,181.595,227.319z"/>
			<path style="fill:#FFAAB6;" d="M179.478,230.615c1.414,0.787-0.679,2.239-2.05,4.704c-1.371,2.465-1.5,5.009-2.914,4.223
				c-1.414-0.787-1.449-3.422-0.078-5.887C175.806,231.189,178.064,229.828,179.478,230.615z"/>
		</g>
	</g>
	<g>
		<g>
			<path style="fill:#965B62;" d="M277.173,261.772c-0.473,0-0.953-0.097-1.414-0.3c-1.768-0.782-2.566-2.85-1.785-4.617
				c4.096-9.259,9.397-14.65,9.621-14.875c1.363-1.371,3.579-1.378,4.95-0.014c1.369,1.361,1.377,3.573,0.02,4.944
				c-0.074,0.076-4.658,4.797-8.188,12.777C279.797,260.994,278.516,261.772,277.173,261.772z"/>
		</g>
		<g>
			<path style="fill:#6DA0B8;" d="M204.082,286.877c-0.473,0-0.953-0.097-1.414-0.3c-1.768-0.782-2.567-2.849-1.785-4.617
				c4.095-9.259,9.398-14.65,9.621-14.875c1.364-1.369,3.58-1.377,4.95-0.014c1.369,1.36,1.377,3.572,0.02,4.943l0,0
				c-0.046,0.047-4.649,4.773-8.189,12.777C206.707,286.099,205.426,286.877,204.082,286.877z"/>
		</g>
		<g>
			<path style="fill:#B6C2D9;" d="M162.633,294.312l156.924-53.005c5.894-1.991,12.346,1.203,14.337,7.097l0,0
				c1.991,5.894-1.203,12.346-7.097,14.337l-156.924,53.005c-0.283,0.096-0.582,0.137-0.88,0.121l-24.204-1.27
				c-2.136-0.112-3.036-2.777-1.406-4.161l18.476-15.686C162.088,294.556,162.35,294.408,162.633,294.312z"/>
			<path style="fill:#95A4C2;" d="M164.713,300.469l156.924-53.006c5.894-1.991,11.41-1.568,12.257,0.94l0,0
				c0.847,2.508-3.282,6.189-9.177,8.18l-156.924,53.005c-0.283,0.096-0.571,0.167-0.849,0.212l-22.559,3.601
				c-1.99,0.318-2.373-0.816-0.598-1.77l20.121-10.816C164.157,300.682,164.43,300.565,164.713,300.469z"/>
			<path style="fill:#DCE4F2;" d="M144.789,314.597l24.204,1.27c0.298,0.016,0.597-0.025,0.88-0.121l0.408-0.138
				c-0.298-3.595-1.061-7.363-2.34-11.149c-1.279-3.787-2.957-7.246-4.9-10.285l-0.408,0.138c-0.283,0.096-0.545,0.244-0.773,0.437
				l-18.476,15.686C141.754,311.82,142.654,314.485,144.789,314.597z"/>
			<g>
				<path style="fill:#7B8BAB;" d="M310.162,256.419c1.251,3.705,2.158,7.396,2.755,11.009l13.88-4.688
					c5.894-1.991,9.088-8.443,7.097-14.337l0,0c-1.991-5.894-8.443-9.088-14.337-7.097l-13.88,4.688
					C307.393,249.23,308.911,252.714,310.162,256.419z"/>
			</g>
			<path style="fill:#DE8591;" d="M325.314,251.302c1.225,3.626,2.203,7.242,2.962,10.816c4.932-2.493,7.435-8.335,5.617-13.715l0,0
				c-1.817-5.38-7.35-8.507-12.783-7.499C322.675,244.207,324.089,247.675,325.314,251.302z"/>
			<path style="fill:#7B8BAB;" d="M148.984,305.681l-5.6,4.755c-1.63,1.384-0.73,4.049,1.406,4.161l7.336,0.385
				c-0.359-1.566-0.802-3.146-1.337-4.729C150.254,308.669,149.648,307.144,148.984,305.681z"/>
		</g>
		<g>
			<g>
				<path style="fill:#7B8BAB;" d="M314.646,305.004c1.799-1.103,1.806-5.682-0.631-9.657c-2.437-3.975-5.186-4.03-6.986-2.927
					c-1.799,1.103-1.966,2.947,0.471,6.921C309.937,303.316,312.847,306.107,314.646,305.004z"/>
				<g>
					<path style="fill:#7EB9D5;" d="M307.824,300.009c-0.07,0-0.142-0.002-0.213-0.006c-6.575-0.396-16.861-3.583-16.472-10.453
						c0.693-12.257,2.506-20.61,2.582-20.96c0.415-1.887,2.285-3.081,4.168-2.667c1.888,0.414,3.083,2.28,2.67,4.168
						c-0.018,0.08-1.749,8.089-2.418,19.622c0.742,1.031,4.902,3.002,9.89,3.302c1.93,0.116,3.399,1.775,3.284,3.704
						C311.203,298.577,309.661,300.009,307.824,300.009z"/>
				</g>
			</g>
			<g>
				<path style="fill:#7B8BAB;" d="M266.062,310.244c0.532,2.042,4.911,3.381,9.423,2.206c4.512-1.175,5.365-3.79,4.833-5.832
					c-0.532-2.042-2.247-2.738-6.759-1.563C269.047,306.23,265.53,308.202,266.062,310.244z"/>
				<g>
					<path style="fill:#7EB9D5;" d="M276.449,309.422c-0.253,0-0.509-0.027-0.767-0.085c-1.886-0.422-3.073-2.293-2.652-4.18
						c3.955-17.697,8.757-42.33,8.805-42.577c0.369-1.897,2.2-3.137,4.104-2.767c1.897,0.369,3.136,2.207,2.767,4.104
						c-0.048,0.247-4.868,24.974-8.844,42.767C279.498,308.314,278.053,309.422,276.449,309.422z"/>
				</g>
			</g>
			<g>
				<path style="fill:#7EB9D5;" d="M281.055,270.671c0,4.954,4.611,8.97,10.3,8.97s10.299-4.016,10.299-8.97
					c0-4.954-4.611-5.979-10.299-5.979S281.055,265.716,281.055,270.671z"/>
				<path style="fill:#C47680;" d="M291.182,273.826c-4.258,0-9.711-1.496-11.454-2.314c-0.562-2.171,0.724-9.059,1.02-14.803
					c0.497-9.643,1.087-18.695,10.778-18.695c9.692,0,11.478,5.197,12.082,19.602c0.237,5.645-0.164,8.666-1.166,13.896
					C299.983,272.331,295.439,273.826,291.182,273.826z"/>
			</g>
			
				<path style="fill:none;stroke:#FFBCA6;stroke-width:5.983;stroke-linecap:round;stroke-linejoin:round;stroke-miterlimit:10;" d="
				M291.291,233.295c0,0,0.133,1.142,0.116,6.408"/>
			<g>
				<ellipse style="fill:#FFBCA6;" cx="289.607" cy="226.077" rx="10.02" ry="12.513"/>
				<path style="fill:#7B8BAB;" d="M297.791,233.295c0,0,1.693-0.194,2.928-7.488c1.017-6.003-1.335-10.197-5.188-12.815
					c-5.133-3.488-17.412-1.374-16.686,7.375c0.036,0.439,0.261,0.837,0.596,1.124c1.807,1.544,8.191,6.579,16.764,8.566
					L297.791,233.295z"/>
				<path style="fill:#FFBCA6;" d="M296.206,230.057c0,0,1.404-1.761,3.036-1.271c1.632,0.49,0.759,6.153-2.721,6.34
					C293.04,235.313,296.206,230.057,296.206,230.057z"/>
			</g>
			<g>
				<g>
					<path style="fill:#DE8591;" d="M281.025,270.451c-0.697,0-1.13-0.031-1.2-0.037c-1.928-0.148-3.369-1.832-3.22-3.759
						c0.148-1.929,1.84-3.391,3.759-3.22c0.041,0.001,5.422,0.346,9.342-2.233c7.992-5.253,6.885-13.518,6.581-15.122
						c-0.358-1.899,0.89-3.73,2.789-4.089c1.896-0.359,3.729,0.889,4.09,2.789c0.447,2.37,2.09,14.579-9.615,22.272
						C288.939,270.084,283.423,270.451,281.025,270.451z"/>
				</g>
				<path style="fill:#FFBCA6;" d="M273.287,265.83c-0.456,2.979,2.073,5.509,5.053,5.053c1.857-0.284,3.374-1.802,3.659-3.659
					c0.456-2.98-2.073-5.509-5.053-5.053C275.089,262.456,273.571,263.973,273.287,265.83z"/>
			</g>
		</g>
		<g>
			<g>
				<path style="fill:#67738F;" d="M234.335,326.804c1.503-1.481,0.473-5.944-2.8-9.264c-3.273-3.32-5.964-2.752-7.467-1.271
					c-1.503,1.481-1.248,3.315,2.025,6.635C229.366,326.225,232.832,328.286,234.335,326.804z"/>
				<g>
					<path style="fill:#7583A1;" d="M219.885,322.682c-5.942,0-9.295-2.028-9.996-6.064c-2.098-12.096-2.223-20.642-2.227-21
						c-0.023-1.933,1.523-3.517,3.456-3.541c0.015,0,0.029,0,0.044,0c1.912,0,3.474,1.538,3.498,3.455
						c0.002,0.082,0.129,8.295,2.092,19.7c0.464,0.227,2.486,0.938,8.373-0.061c1.904-0.33,3.713,0.958,4.037,2.864
						c0.324,1.905-0.959,3.713-2.865,4.036C223.903,322.478,221.764,322.682,219.885,322.682z"/>
				</g>
			</g>
			<g>
				<path style="fill:#67738F;" d="M213.149,340.984c0.915,1.901,5.47,2.372,9.671,0.351c4.201-2.021,4.535-4.752,3.62-6.653
					c-0.915-1.902-2.732-2.254-6.933-0.233C215.306,336.471,212.234,339.083,213.149,340.984z"/>
				<g>
					<path style="fill:#7B8BAB;" d="M222.701,338.226c-0.031,0-0.063,0-0.094-0.001c-1.932-0.051-3.458-1.658-3.407-3.591
						c0.476-18.13,0.447-43.226,0.446-43.477c-0.002-1.933,1.562-3.502,3.495-3.505c0.002,0,0.003,0,0.005,0
						c1.931,0,3.498,1.563,3.5,3.495c0.001,0.252,0.029,25.444-0.448,43.67C226.148,336.719,224.591,338.226,222.701,338.226z"/>
				</g>
			</g>
			<g>
				<path style="fill:#7B8BAB;" d="M207.965,295.777c0,4.954,4.611,8.97,10.3,8.97s10.299-4.016,10.299-8.97
					c0-4.954-4.611-5.979-10.299-5.979S207.965,290.823,207.965,295.777z"/>
				<path style="fill:#7EB9D5;" d="M218.091,298.933c-4.257,0-9.71-1.496-11.454-2.314c-0.562-2.171,0.724-9.059,1.02-14.803
					c0.497-9.643,1.087-18.695,10.778-18.695c9.692,0,11.478,5.198,12.082,19.602c0.237,5.645-0.164,8.666-1.166,13.896
					C226.892,297.437,222.349,298.933,218.091,298.933z"/>
			</g>
			
				<path style="fill:none;stroke:#FFBCA6;stroke-width:5.983;stroke-linecap:round;stroke-linejoin:round;stroke-miterlimit:10;" d="
				M218.2,258.401c0,0,0.133,1.142,0.116,6.408"/>
			<g>
				<ellipse style="fill:#FFBCA6;" cx="216.517" cy="251.183" rx="10.02" ry="12.513"/>
				<path style="fill:#965B62;" d="M222.44,238.098c-3.1-2.106-8.802-2.166-12.676,0.041c-0.442,0.135-0.857,0.307-1.229,0.531
					c-4.714,2.854-7.396,1.861-7.396,1.861c-1.225,9.827,20.657,9.958,20.657,9.958l2.903,7.912c0,0,1.693-0.194,2.929-7.488
					C228.646,244.91,226.294,240.717,222.44,238.098z"/>
				<path style="fill:#FFBCA6;" d="M223.115,255.163c0,0,1.404-1.761,3.036-1.271c1.632,0.49,0.759,6.153-2.721,6.34
					C219.95,260.419,223.115,255.163,223.115,255.163z"/>
			</g>
			<g>
				<g>
					<path style="fill:#8CCEED;" d="M236.295,301.433c-1.882,0-3.436-1.494-3.496-3.389c-0.557-17.504-8.921-24.261-9.006-24.327
						c-1.521-1.192-1.787-3.393-0.594-4.914c1.193-1.521,3.394-1.786,4.914-0.594c4.091,3.208,11.156,13.056,11.683,29.612
						c0.061,1.932-1.455,3.548-3.387,3.609C236.371,301.432,236.333,301.433,236.295,301.433z"/>
				</g>
				<path style="fill:#FFBCA6;" d="M233.615,302.724c1.618,2.543,5.187,2.782,7.13,0.477c1.211-1.436,1.354-3.578,0.346-5.162
					c-1.618-2.543-5.187-2.782-7.13-0.477C232.75,298.998,232.607,301.139,233.615,302.724z"/>
			</g>
		</g>
	</g>
	<g>
		<g>
			<path style="fill:#DE8591;" d="M266.484,172.702c1.361,1.612,5.89,0.929,9.452-2.079c3.562-3.007,3.203-5.734,1.842-7.347
				c-1.361-1.612-3.209-1.5-6.771,1.508C267.444,167.793,265.122,171.09,266.484,172.702z"/>
			<g>
				<path style="fill:#5F6A82;" d="M274.427,167.722c-0.013,0-0.025,0-0.037,0c-1.933-0.02-3.483-1.603-3.464-3.536
					c0.023-2.257-0.213-4.294-0.422-6.092c-0.35-3.017-0.681-5.866,0.393-8.575c1.192-3.015,7.411-7.045,18.481-11.978
					c1.767-0.786,3.835,0.007,4.622,1.773c0.786,1.766-0.007,3.835-1.773,4.622c-6.909,3.079-13.614,6.841-14.885,8.337
					c-0.341,1.091-0.138,2.836,0.114,5.015c0.232,2.003,0.496,4.273,0.469,6.971C277.906,166.179,276.343,167.722,274.427,167.722z
					 M277.265,152.37L277.265,152.37L277.265,152.37z"/>
			</g>
		</g>
		<g>
			<path style="fill:#DE8591;" d="M275.752,176.436c1.361,1.612,5.89,0.929,9.452-2.078c3.562-3.007,3.203-5.734,1.842-7.347
				c-1.361-1.612-3.209-1.5-6.771,1.508C276.712,171.526,274.391,174.823,275.752,176.436z"/>
			<g>
				<path style="fill:#5F6A82;" d="M283.694,171.456c-0.013,0-0.024,0-0.037,0c-1.933-0.02-3.483-1.603-3.464-3.536
					c0.023-2.257-0.213-4.295-0.422-6.093c-0.35-3.017-0.68-5.866,0.392-8.574c1.194-3.017,7.413-7.046,18.483-11.979
					c1.768-0.786,3.835,0.007,4.622,1.773c0.786,1.766-0.007,3.835-1.772,4.622c-6.909,3.08-13.615,6.842-14.886,8.337
					c-0.34,1.09-0.138,2.836,0.115,5.015c0.232,2.003,0.495,4.273,0.468,6.972C287.174,169.912,285.61,171.456,283.694,171.456z"/>
			</g>
		</g>
		<g>
			<g>
				<path style="fill:#965B62;" d="M266.667,124.822c-1.586,0-3.022-1.086-3.403-2.696c-0.444-1.881,0.72-3.767,2.601-4.212
					c0.057-0.013,5.689-1.351,9.235-2.663c11.677-4.324,13.841-5.428,13.928-5.473c1.676-0.964,3.775-0.365,4.739,1.311
					c0.964,1.676,0.347,3.837-1.329,4.801c-0.465,0.268-2.913,1.485-14.908,5.926c-3.95,1.462-9.807,2.853-10.055,2.911
					C267.204,124.791,266.934,124.822,266.667,124.822z"/>
			</g>
			<path style="fill:#FFBCA6;" d="M260.864,118.721c-1.395,2.007-0.968,4.847,0.952,6.344c1.921,1.497,4.609,1.083,6.003-0.923
				c1.395-2.007,0.969-4.847-0.952-6.344C264.947,116.301,262.259,116.714,260.864,118.721z"/>
			<path style="fill:#FFBCA6;" d="M257.146,122.495l6.822-2.802c0.688-0.283,1.02-1.077,0.737-1.765l0,0
				c-0.283-0.688-1.077-1.02-1.765-0.737l-6.822,2.802c-0.688,0.283-1.02,1.077-0.737,1.765v0
				C255.664,122.446,256.458,122.778,257.146,122.495z"/>
		</g>
		<g>
			<path style="fill:#5F6A82;" d="M286.888,140.975c0,4.954,4.611,8.971,10.3,8.971c5.688,0,10.299-4.016,10.299-8.971
				c0-4.954-4.611-21.133-10.299-21.133C291.499,119.843,286.888,136.021,286.888,140.975z"/>
			<path style="fill:#C47680;" d="M296.87,141.311c-4.258,0-9.982-2.179-10.581-4.319c0.801-2.733,0.276-4.082-0.413-9.549
				c-0.373-2.958-2.038-6.778-1.795-9.566c0.544-6.251,5.402-12.248,12.092-11.341c8.613,1.168,8.928,5.82,10.321,20.255
				c0.546,5.657,1.233,7.539,1.509,12.202C305.589,139.813,301.128,141.311,296.87,141.311z"/>
		</g>
		<path style="fill:none;stroke:#FFBCA6;stroke-width:5.983;stroke-linecap:round;stroke-linejoin:round;stroke-miterlimit:10;" d="
			M294.759,101.693c0,0,0.195,1.145,0.466,6.422"/>
		<g>
			<path style="fill:#FFBCA6;" d="M281.062,95.169c0.357,6.534,5.118,11.83,10.635,11.83c5.516,0,9.699-5.297,9.341-11.83
				c-0.357-6.534-5.118-11.83-10.635-11.83C284.887,83.339,280.705,88.635,281.062,95.169z"/>
			<path style="fill:#5F6A82;" d="M303.544,77.812c0,3.51-2.846,6.356-6.356,6.356c-3.51,0-6.356-2.846-6.356-6.356
				s2.846-6.356,6.356-6.356C300.698,71.455,303.544,74.301,303.544,77.812z"/>
			<path style="fill:#DE8591;" d="M301.925,82.04c-0.329-0.5-0.703-0.982-1.143-1.434c-2.367-2.431-6.217-3.048-9.911-2.105
				c0.343,3.187,3.04,5.668,6.318,5.668C299.072,84.168,300.761,83.343,301.925,82.04z"/>
			<path style="fill:#5F6A82;" d="M279.659,97.765c0,0,10.3,0.143,17.529-6.09c0,0,0.331,6.598,3.127,8.944
				c0,0,4.818-11.163-1.139-17.28C292.864,76.858,276.02,83.266,279.659,97.765z"/>
		</g>
		<g>
			<g>
				<path style="fill:#DE8591;" d="M302.061,115.402c-1.351,0-2.637-0.786-3.211-2.104c-0.771-1.772,0.039-3.834,1.811-4.606
					c0.366-0.173,3.962-2.014,3.843-7.063c-0.151-6.387-2.478-8.259-4.347-9.764c-0.634-0.51-1.232-0.992-1.762-1.613
					c-1.255-1.471-1.078-3.68,0.393-4.934c1.471-1.254,3.679-1.079,4.934,0.392c0.113,0.13,0.524,0.46,0.824,0.702
					c2.351,1.892,6.728,5.415,6.956,15.051c0.234,9.924-7.708,13.499-8.046,13.646C303.002,115.308,302.527,115.402,302.061,115.402
					z"/>
			</g>
			<path style="fill:#FFBCA6;" d="M294.766,86.339c0.133,2.44,2.216,4.419,4.651,4.419c2.435,0,4.301-1.978,4.168-4.419
				c-0.133-2.44-2.216-4.419-4.651-4.419C296.498,81.921,294.632,83.899,294.766,86.339z"/>
		</g>
	</g>
	<g>
		<path style="fill:none;stroke:#7B8BAB;stroke-width:3;stroke-linecap:round;stroke-linejoin:round;stroke-miterlimit:10;" d="
			M106.712,404.028c-6.49,4.083-15.631,3.682-25.758-2.165c-19.688-11.367-35.649-39.012-35.649-61.746
			c0-11.095,3.802-18.97,9.983-22.804"/>
		<path style="fill:none;stroke:#7B8BAB;stroke-width:3;stroke-linecap:round;stroke-linejoin:round;stroke-miterlimit:10;" d="
			M30.305,360.699c0-7.484,4.945-14.967,14.835-20.677c19.78-11.42,51.849-11.42,71.628,0c9.889,5.71,14.834,13.193,14.835,20.676"
			/>
		<path style="fill:none;stroke:#7B8BAB;stroke-width:3;stroke-linecap:round;stroke-linejoin:round;stroke-miterlimit:10;" d="
			M106.973,317.468c5.997,3.91,9.671,11.712,9.671,22.625c0,22.76-15.979,50.437-35.69,61.817
			c-10.19,5.883-19.382,6.259-25.885,2.105"/>
		<path style="fill:none;stroke:#B6C2D9;stroke-width:3;stroke-linecap:round;stroke-linejoin:round;stroke-miterlimit:10;" d="
			M131.402,360.699c0.183,27.861-22.586,50.448-50.448,50.448s-50.448-22.586-50.448-50.448c0-27.862,22.587-50.312,50.448-50.448
			C108.751,310.114,131.217,332.447,131.402,360.699z"/>
		<path style="fill:none;stroke:#7B8BAB;stroke-width:3;stroke-linecap:round;stroke-linejoin:round;stroke-miterlimit:10;" d="
			M131.603,360.698c0,7.484-4.945,14.968-14.835,20.678c-19.78,11.42-51.849,11.42-71.628,0c-9.89-5.71-14.835-13.193-14.835-20.677
			"/>
		<path style="fill:none;stroke:#B6C2D9;stroke-width:3;stroke-linecap:round;stroke-linejoin:round;stroke-miterlimit:10;" d="
			M106.973,317.468c-6.51-4.245-15.759-3.904-26.019,2.02c-11.403,6.584-21.557,18.621-28.091,32.005
			c-4.76,9.752-7.599,20.218-7.599,29.812c0,10.994,3.728,18.83,9.804,22.711"/>
		<path style="fill:none;stroke:#B6C2D9;stroke-width:3;stroke-linecap:round;stroke-linejoin:round;stroke-miterlimit:10;" d="
			M55.288,317.313c6.484-4.022,15.587-3.597,25.666,2.222c19.688,11.367,35.649,39.012,35.649,61.746
			c0,11.04-3.764,18.892-9.891,22.747"/>
	</g>
	<g>
		<path style="fill:#DE8591;" d="M277.656,52.856V42.138h0c0.018-1.085-0.617-2.124-1.949-2.893l-14.105-8.143
			c-2.902-1.675-8.018-1.463-11.369,0.471l-33.74,19.48c-1.773,1.024-2.702,2.333-2.762,3.587l-0.012,0.002V65.54l0.013-0.003
			c-0.063,1.124,0.569,2.206,1.944,3.001l14.105,8.143c2.902,1.675,8.018,1.463,11.369-0.471l33.74-19.48
			c1.813-1.047,2.744-2.391,2.765-3.67h0v-0.001C277.657,52.991,277.66,52.923,277.656,52.856z"/>
		<path style="fill:#CC7480;" d="M277.656,42.138c0.018-1.085-0.617-2.124-1.949-2.893l-8.382-4.84L241.15,51.823V76.21
			l29.461-17.009C273.408,52.966,276.707,45.363,277.656,42.138z"/>
		<path style="fill:#E0BB57;" d="M277.656,53.06L277.656,53.06L277.656,53.06c0.001-0.069,0.004-0.136,0-0.204V42.138h0
			c0.018-1.085-0.617-2.124-1.949-2.893l-14.105-8.143c-1.165-0.673-2.688-1.036-4.309-1.111v25.978V66.89l0,0l17.597-10.16
			C276.704,55.683,277.635,54.339,277.656,53.06z"/>
		<path style="fill:#FFAAB6;" d="M229.782,65.76l-14.105-8.143c-2.902-1.675-2.535-4.629,0.816-6.564l33.74-19.48
			c3.351-1.935,8.467-2.147,11.369-0.471l14.105,8.143c2.902,1.675,2.535,4.629-0.816,6.564l-33.74,19.48
			C237.8,67.223,232.684,67.435,229.782,65.76z"/>
		<path style="fill:#FFE8A8;" d="M275.707,39.245l-14.105-8.143c-2.902-1.675-8.018-1.463-11.369,0.471l-17.949,10.363
			l25.009,14.033l17.597-10.16C278.242,43.874,278.609,40.92,275.707,39.245z"/>
	</g>
	<g>
		<path style="fill:#6797AD;" d="M64.587,448.744v-12.087l0,0c-0.02-1.224,0.696-2.396,2.198-3.263l15.906-9.184
			c3.273-1.889,9.042-1.65,12.821,0.531l38.05,21.968c2,1.155,3.047,2.631,3.114,4.045l0.014,0.003v12.29l-0.015-0.003
			c0.072,1.268-0.641,2.488-2.193,3.384l-15.906,9.183c-3.273,1.889-9.042,1.65-12.821-0.531l-38.05-21.968
			c-2.044-1.18-3.094-2.696-3.118-4.139l0,0v-0.001C64.586,448.896,64.582,448.82,64.587,448.744z"/>
		<polygon style="fill:#5B8699;" points="87.55,452.254 87.55,464.57 87.55,464.57 105.755,475.081 105.755,462.764 		"/>
		<path style="fill:#FFD563;" d="M64.587,448.974L64.587,448.974v-0.001c-0.001-0.076-0.005-0.153,0-0.229v-12.087l0,0
			c-0.02-1.224,0.696-2.396,2.198-3.263l15.906-9.184c1.314-0.758,3.031-1.168,4.859-1.253v29.296v12.316l0,0l-19.845-11.457
			C65.661,451.932,64.611,450.416,64.587,448.974z"/>
		<path style="fill:#7EB9D5;" d="M118.576,463.296l15.906-9.183c3.273-1.889,2.858-5.22-0.92-7.402l-38.05-21.968
			c-3.779-2.182-9.548-2.421-12.821-0.531l-15.906,9.183c-3.273,1.889-2.858,5.22,0.92,7.402l38.05,21.968
			C109.534,464.946,115.303,465.185,118.576,463.296z"/>
		<path style="fill:#FFE8A8;" d="M66.785,433.394l15.906-9.184c3.273-1.889,9.042-1.65,12.821,0.531l20.242,11.687L87.55,452.254
			l-19.845-11.458C63.927,438.614,63.512,435.284,66.785,433.394z"/>
	</g>
	<g>
		<polygon style="fill:#F0C85D;" points="95.184,302.358 32.081,265.926 32.081,247.036 95.184,283.469 		"/>
		<polygon style="fill:#FFD563;" points="95.184,302.358 95.184,283.469 158.288,247.036 158.288,265.925 		"/>
		<polygon style="fill:#FFE08A;" points="95.184,283.469 32.081,247.036 95.185,210.603 158.288,247.036 		"/>
		<g>
			<polygon style="fill:#FFE8A8;" points="95.184,278.01 32.081,241.577 95.185,210.603 158.288,247.036 			"/>
			<path style="fill:#F2D583;" d="M134.384,248.17l-44.819-26.172c-0.772-0.446-0.658-1.164,0.255-1.595l0,0
				c0.913-0.431,2.292-0.419,3.064,0.027l44.819,26.172c0.772,0.446,0.658,1.164-0.255,1.595l0,0
				C136.536,248.628,135.157,248.616,134.384,248.17z"/>
			<path style="fill:#F2D583;" d="M99.535,265.636l-44.819-26.172c-0.772-0.446-0.657-1.164,0.255-1.595l0,0
				c0.913-0.431,2.292-0.419,3.064,0.027l44.819,26.172c0.773,0.446,0.658,1.164-0.255,1.595l0,0
				C101.686,266.094,100.307,266.082,99.535,265.636z"/>
			<path style="fill:#F2D583;" d="M107.071,250.881l-34.931-20.15c-0.772-0.446-0.657-1.164,0.255-1.595l0,0
				c0.913-0.431,2.292-0.419,3.064,0.027l34.931,20.15c0.772,0.446,0.658,1.164-0.255,1.595h0
				C109.222,251.339,107.843,251.327,107.071,250.881z"/>
		</g>
	</g>
	<g>
		<path style="fill:#B86F78;" d="M264.261,360.501c-28.511-16.461-74.736-16.46-103.246,0c-14.255,8.23-21.383,19.017-21.383,29.805
			l0,0v23.152l0,0c0,10.787,7.128,21.574,21.383,29.805c28.511,16.461,74.735,16.461,103.246,0
			c14.255-8.23,21.383-19.018,21.383-29.805l0,0v-23.152l0,0C285.644,379.518,278.517,368.731,264.261,360.501z"/>
		<path style="fill:#95A4C2;" d="M149.849,434.977c3.043,2.955,6.762,5.743,11.166,8.285c22.587,13.04,56.284,15.739,83.491,8.118
			v-23.152l-94.657-16.403V434.977z"/>
		<path style="fill:#FFD563;" d="M285.644,390.306c0-9.958-6.089-19.911-18.237-27.858l-22.901,65.781v23.152
			c7.136-1.999,13.831-4.698,19.755-8.118c14.255-8.23,21.383-19.018,21.383-29.805V390.306z"/>
		<ellipse style="fill:#7EB9D5;" cx="212.638" cy="390.306" rx="73.006" ry="42.15"/>
		<path style="fill:#FFE08A;" d="M264.261,360.501c-3.989-2.303-8.334-4.272-12.919-5.93l-38.705,35.735l31.867,37.922
			c7.136-1.999,13.832-4.698,19.755-8.118C292.772,403.649,292.772,376.961,264.261,360.501z"/>
		<path style="fill:#B6C2D9;" d="M149.849,411.825c3.043,2.955,6.762,5.743,11.166,8.285c22.587,13.04,56.284,15.739,83.491,8.118
			l-31.867-37.922L149.849,411.825z"/>
		<path style="fill:#DE8591;" d="M142.468,378.669c-5.463,11.019-3.008,23.068,7.38,33.156l62.789-21.519L142.468,378.669z"/>
		<ellipse style="opacity:0.15;fill:#FFFFFF;" cx="212.638" cy="390.306" rx="23.243" ry="13.419"/>
		<path style="opacity:0.15;fill:#FFFFFF;" d="M264.261,360.501c-28.511-16.461-74.736-16.46-103.246,0s-28.511,43.149,0,59.609
			s74.735,16.461,103.246,0S292.772,376.961,264.261,360.501z M256.174,415.441c-24.045,13.882-63.028,13.882-87.073,0
			c-24.044-13.882-24.044-36.389,0-50.271c24.045-13.882,63.028-13.882,87.073,0C280.219,379.052,280.219,401.559,256.174,415.441z"
			/>
	</g>
</g>
<g id="DESIGNED_BY_FREEPIK">
	<g>
		<g id="XMLID_319_">
			<g id="XMLID_338_">
				<path id="XMLID_346_" style="fill:#A5B7C6;" d="M260.104,470.394c-0.432,0.443-0.803,0.931-1.108,1.453l-0.465-0.241
					c-0.067-0.298-0.349-0.503-0.659-0.466c-0.331,0.039-0.568,0.339-0.529,0.67c0.039,0.331,0.339,0.568,0.67,0.529
					c0.066-0.008,0.127-0.026,0.184-0.052l0.451,0.234c-0.251,0.554-0.433,1.139-0.539,1.744l0.746,0.132
					c0.23-1.306,0.85-2.507,1.792-3.473L260.104,470.394z"/>
				<path id="XMLID_345_" style="fill:#A5B7C6;" d="M265.592,468.092c-0.171,0-0.341,0.006-0.51,0.017l-0.074-0.626
					c0.188-0.149,0.296-0.389,0.266-0.645c-0.046-0.393-0.402-0.674-0.795-0.628c-0.393,0.046-0.674,0.402-0.628,0.795
					c0.03,0.254,0.189,0.461,0.404,0.564l0.074,0.624c-0.714,0.116-1.403,0.332-2.06,0.646l0.327,0.684
					c0.934-0.447,1.942-0.673,2.995-0.673c0.496,0,0.993,0.053,1.475,0.158l0.161-0.741
					C266.692,468.151,266.142,468.092,265.592,468.092z"/>
				<path id="XMLID_344_" style="fill:#A5B7C6;" d="M272.194,470.639c0.331-0.04,0.566-0.341,0.526-0.672
					c-0.04-0.331-0.341-0.566-0.672-0.526c-0.309,0.038-0.535,0.304-0.53,0.609l-0.416,0.363c-0.418-0.43-0.889-0.813-1.408-1.139
					l-0.404,0.641c1.134,0.715,2.021,1.726,2.563,2.925l0.69-0.313c-0.251-0.554-0.568-1.072-0.942-1.545l0.402-0.351
					C272.065,470.644,272.129,470.647,272.194,470.639z"/>
				<path id="XMLID_343_" style="fill:#A5B7C6;" d="M265.044,478.3c-0.386,0.023-0.775,0.035-1.157,0.035
					c-0.88,0-1.733-0.061-2.478-0.179c-0.39-0.062-0.846-0.155-1.27-0.292c1.046,1.861,3.069,3.125,5.388,3.125
					c2.855,0,5.262-1.916,5.95-4.504c-0.682,0.449-1.505,0.825-2.459,1.123C267.839,477.976,266.463,478.215,265.044,478.3z"/>
				<path id="XMLID_339_" style="fill:#A5B7C6;" d="M265.592,469.608c-3.352,0-6.08,2.666-6.08,5.944
					c0,0.426,0.046,0.849,0.137,1.261c0.673,0.483,2.706,0.89,5.348,0.731c2.879-0.173,5.297-0.957,6.672-2.159
					c-0.006-0.195-0.021-0.39-0.045-0.582C271.244,471.842,268.65,469.608,265.592,469.608z M263.432,476.123
					c-1.02,0-1.85-0.83-1.85-1.85c0-1.02,0.83-1.85,1.85-1.85c1.02,0,1.85,0.83,1.85,1.85
					C265.282,475.293,264.452,476.123,263.432,476.123z M268.17,475.215c-0.75,0-1.36-0.61-1.36-1.36c0-0.75,0.61-1.361,1.36-1.361
					c0.75,0,1.361,0.61,1.361,1.361C269.53,474.605,268.92,475.215,268.17,475.215z"/>
			</g>
			<path id="XMLID_336_" style="fill:#A5B7C6;" d="M281.595,471.475c-0.295-0.116-0.805-0.309-1.382-0.237
				c-0.551,0.068-0.844,0.34-0.844,1.007v0.866h2.228v1.717h-2.228v5.455h-1.932v-5.455h-1.34v-1.717h1.34v-0.888
				c0-1.68,0.896-2.783,2.568-2.783c0.643,0,1.157,0.122,1.59,0.308L281.595,471.475z"/>
			<path id="XMLID_334_" style="fill:#A5B7C6;" d="M286.298,474.807c-0.177-0.03-0.358-0.046-0.526-0.046
				c-0.895,0-1.51,0.548-1.51,1.613v3.908h-1.932v-7.172h1.873v0.785c0.451-0.674,1.14-0.977,2.021-0.977
				c0.414,0,0.848,0.128,1.094,0.337L286.298,474.807z"/>
			<path id="XMLID_331_" style="fill:#A5B7C6;" d="M293.965,476.685c0,0.222-0.015,0.489-0.037,0.651h-5.085
				c0.207,1.036,0.933,1.488,1.843,1.488c0.622,0,1.295-0.252,1.813-0.688l1.133,1.243c-0.814,0.748-1.85,1.088-3.057,1.088
				c-2.198,0-3.723-1.495-3.723-3.753c0-2.257,1.48-3.797,3.627-3.797C292.544,472.918,293.958,474.45,293.965,476.685z
				 M288.851,476.019h3.175c-0.177-0.918-0.733-1.436-1.562-1.436C289.554,474.583,289.021,475.131,288.851,476.019z"/>
			<path id="XMLID_328_" style="fill:#A5B7C6;" d="M301.618,476.685c0,0.222-0.015,0.489-0.037,0.651h-5.085
				c0.207,1.036,0.932,1.488,1.843,1.488c0.622,0,1.295-0.252,1.814-0.688l1.132,1.243c-0.814,0.748-1.85,1.088-3.057,1.088
				c-2.198,0-3.723-1.495-3.723-3.753c0-2.257,1.48-3.797,3.627-3.797C300.197,472.918,301.611,474.45,301.618,476.685z
				 M296.504,476.019h3.175c-0.178-0.918-0.733-1.436-1.562-1.436C297.207,474.583,296.674,475.131,296.504,476.019z"/>
			<path id="XMLID_325_" style="fill:#A5B7C6;" d="M309.964,476.693c0,2.154-1.495,3.775-3.471,3.775
				c-0.962,0-1.643-0.378-2.109-0.933v3.708h-1.924v-10.133h1.887v0.792c0.466-0.585,1.155-0.984,2.139-0.984
				C308.469,472.918,309.964,474.539,309.964,476.693z M304.287,476.693c0,1.132,0.747,1.976,1.843,1.976
				c1.14,0,1.85-0.881,1.85-1.976c0-1.095-0.711-1.976-1.85-1.976C305.035,474.717,304.287,475.56,304.287,476.693z"/>
			<path id="XMLID_322_" style="fill:#A5B7C6;" d="M313.067,470.764c0,0.696-0.54,1.229-1.236,1.229
				c-0.696,0-1.229-0.533-1.229-1.229c0-0.696,0.533-1.243,1.229-1.243C312.527,469.521,313.067,470.069,313.067,470.764z
				 M312.809,480.283h-1.932v-7.172h1.932V480.283z"/>
			<path id="XMLID_320_" style="fill:#A5B7C6;" d="M316.032,475.664l2.702-2.554h2.368l-3.479,3.375l3.501,3.797h-2.376
				l-2.716-2.901v2.901H314.1v-10.658h1.932V475.664z"/>
		</g>
		<g>
			<path style="fill:#A5B7C6;" d="M184.412,480.217v-1.055c-0.527,0.718-1.391,1.23-2.387,1.23c-1.846,0-3.149-1.406-3.149-3.706
				c0-2.256,1.289-3.721,3.149-3.721c0.952,0,1.816,0.469,2.387,1.245v-3.765h1.099v9.77H184.412z M184.412,478.299v-3.208
				c-0.395-0.615-1.245-1.143-2.124-1.143c-1.421,0-2.27,1.172-2.27,2.739c0,1.567,0.85,2.724,2.27,2.724
				C183.168,479.412,184.017,478.914,184.412,478.299z"/>
			<path style="fill:#A5B7C6;" d="M186.932,476.673c0-2.051,1.465-3.706,3.486-3.706c2.139,0,3.398,1.67,3.398,3.794v0.279h-5.727
				c0.088,1.333,1.025,2.446,2.549,2.446c0.805,0,1.626-0.322,2.182-0.893l0.527,0.718c-0.703,0.703-1.655,1.084-2.812,1.084
				C188.44,480.393,186.932,478.885,186.932,476.673z M190.403,473.875c-1.509,0-2.256,1.274-2.314,2.358h4.643
				C192.718,475.179,192.015,473.875,190.403,473.875z"/>
			<path style="fill:#A5B7C6;" d="M194.607,479.28l0.571-0.791c0.469,0.542,1.362,1.011,2.329,1.011c1.084,0,1.67-0.513,1.67-1.216
				c0-1.714-4.38-0.659-4.38-3.281c0-1.098,0.952-2.036,2.636-2.036c1.201,0,2.051,0.454,2.622,1.026l-0.513,0.762
				c-0.424-0.513-1.201-0.894-2.109-0.894c-0.967,0-1.567,0.483-1.567,1.113c0,1.553,4.38,0.527,4.38,3.281
				c0,1.187-0.952,2.139-2.783,2.139C196.306,480.393,195.325,480.042,194.607,479.28z"/>
			<path style="fill:#A5B7C6;" d="M201.477,471.4c0-0.41,0.337-0.747,0.732-0.747c0.41,0,0.747,0.337,0.747,0.747
				c0,0.41-0.337,0.732-0.747,0.732C201.814,472.132,201.477,471.81,201.477,471.4z M201.667,480.217v-7.075h1.099v7.075H201.667z"
				/>
			<path style="fill:#A5B7C6;" d="M204.582,482.034l0.556-0.82c0.586,0.703,1.289,0.967,2.3,0.967c1.172,0,2.27-0.571,2.27-2.124
				v-1.011c-0.513,0.718-1.377,1.26-2.373,1.26c-1.845,0-3.149-1.377-3.149-3.662c0-2.27,1.289-3.677,3.149-3.677
				c0.952,0,1.802,0.469,2.373,1.245v-1.069h1.098v6.87c0,2.344-1.641,3.076-3.369,3.076
				C206.237,483.089,205.417,482.854,204.582,482.034z M209.709,478.182v-3.091c-0.381-0.615-1.23-1.143-2.109-1.143
				c-1.421,0-2.27,1.128-2.27,2.695c0,1.553,0.849,2.695,2.27,2.695C208.478,479.339,209.328,478.797,209.709,478.182z"/>
			<path style="fill:#A5B7C6;" d="M217.413,480.217v-4.629c0-1.245-0.63-1.641-1.582-1.641c-0.865,0-1.685,0.527-2.095,1.099v5.17
				h-1.099v-7.075h1.099v1.025c0.498-0.586,1.465-1.201,2.519-1.201c1.48,0,2.256,0.747,2.256,2.285v4.966H217.413z"/>
			<path style="fill:#A5B7C6;" d="M219.932,476.673c0-2.051,1.465-3.706,3.486-3.706c2.139,0,3.398,1.67,3.398,3.794v0.279h-5.727
				c0.088,1.333,1.025,2.446,2.549,2.446c0.806,0,1.626-0.322,2.183-0.893l0.527,0.718c-0.703,0.703-1.655,1.084-2.812,1.084
				C221.441,480.393,219.932,478.885,219.932,476.673z M223.404,473.875c-1.509,0-2.256,1.274-2.314,2.358h4.643
				C225.718,475.179,225.015,473.875,223.404,473.875z"/>
			<path style="fill:#A5B7C6;" d="M233.35,480.217v-1.055c-0.527,0.718-1.392,1.23-2.388,1.23c-1.846,0-3.149-1.406-3.149-3.706
				c0-2.256,1.289-3.721,3.149-3.721c0.952,0,1.817,0.469,2.388,1.245v-3.765h1.098v9.77H233.35z M233.35,478.299v-3.208
				c-0.396-0.615-1.245-1.143-2.124-1.143c-1.421,0-2.27,1.172-2.27,2.739c0,1.567,0.849,2.724,2.27,2.724
				C232.105,479.412,232.954,478.914,233.35,478.299z"/>
			<path style="fill:#A5B7C6;" d="M239.692,480.217v-9.77h1.098v3.765c0.572-0.776,1.421-1.245,2.388-1.245
				c1.845,0,3.149,1.465,3.149,3.721c0,2.299-1.304,3.706-3.149,3.706c-0.996,0-1.86-0.513-2.388-1.23v1.055H239.692z
				 M242.9,479.412c1.436,0,2.285-1.157,2.285-2.724c0-1.568-0.85-2.739-2.285-2.739c-0.864,0-1.728,0.527-2.109,1.143v3.208
				C241.171,478.914,242.036,479.412,242.9,479.412z"/>
			<path style="fill:#A5B7C6;" d="M247.528,481.99c0.161,0.073,0.425,0.117,0.601,0.117c0.483,0,0.805-0.161,1.055-0.747
				l0.469-1.069l-2.959-7.148h1.187l2.358,5.801l2.344-5.801h1.201l-3.545,8.51c-0.425,1.025-1.143,1.421-2.08,1.435
				c-0.234,0-0.601-0.044-0.806-0.103L247.528,481.99z"/>
		</g>
	</g>
</g>
</svg>
